<?xml version="1.0" encoding="utf-8"?>
<!-- Generator: Adobe Illustrator 19.1.0, SVG Export Plug-In . SVG Version: 6.00 Build 0)  -->
<svg version="1.1" id="Layer_1" xmlns="http://www.w3.org/2000/svg" xmlns:xlink="http://www.w3.org/1999/xlink" x="0px" y="0px"
	 width="160px" height="50px" viewBox="0 0 160 50" enable-background="new 0 0 160 50" xml:space="preserve">
<g>
	<path fill="#3878F3" d="M153.6,18.6c-0.8,0-1.4,0.6-1.4,1.4c0,0.8,0.6,1.4,1.4,1.4c0.8,0,1.4-0.6,1.4-1.4
		C155.1,19.2,154.4,18.6,153.6,18.6z M153.6,21.2c-0.7,0-1.2-0.5-1.2-1.2c0-0.7,0.5-1.2,1.2-1.2c0.7,0,1.2,0.5,1.2,1.2
		C154.9,20.7,154.3,21.2,153.6,21.2z"/>
	<path fill="#3878F3" d="M154.3,19.6c0-0.3-0.2-0.5-0.5-0.5h-0.6v1.6h0.2v-0.7h0.3l0.3,0.7h0.2l-0.3-0.7
		C154.1,20,154.3,19.9,154.3,19.6z M153.7,19.9h-0.4v-0.5h0.4c0.2,0,0.3,0.1,0.3,0.3C154.1,19.8,154,19.9,153.7,19.9z"/>
	<polygon fill="#3878F3" points="40,15.3 34.9,15.3 34.9,37.2 50.4,37.2 50.4,33.2 40,33.2 	"/>
	<rect x="52.6" y="20" fill="#3878F3" width="4.7" height="17.2"/>
	<rect x="52.6" y="13.5" fill="#3878F3" width="4.7" height="4.1"/>
	<path fill="#3878F3" d="M63.3,15.2c-0.7,0.7-1,1.8-1,4V20h-2.6v3.8h2.6v13.4h4.8V23.7h3.5V20h-3.5v-0.7c0-0.8,0.1-1.2,0.2-1.4
		c0.2-0.2,0.4-0.2,1-0.2h2.3v-3.6h-3.9C64.8,14.1,64,14.4,63.3,15.2z"/>
	<path fill="#3878F3" d="M82.7,20h-5.8c-1.8,0-2.7,0.3-3.4,1c-1.1,1.2-1.6,2.5-1.6,7.6c0,5.1,0.4,6.4,1.6,7.5
		c0.8,0.8,1.7,1.1,3.4,1.1h6.4c1.8,0,2.5-0.5,3.1-1c0.8-0.8,1.1-1.8,1.2-4.4h-4.4c0,1.2-0.1,1.4-0.3,1.6c-0.2,0.2-0.4,0.3-1.4,0.3
		h-2.9c-0.8,0-1.3-0.1-1.5-0.3c-0.2-0.2-0.4-0.7-0.4-3.4h10.2c0.6,0,0.7-0.2,0.7-0.7v-0.8c0-4.9-0.3-6.3-1.4-7.4
		C85.4,20.3,84.4,20,82.7,20z M76.6,27c0-2.4,0.2-2.9,0.4-3.2c0.2-0.3,0.7-0.3,1.5-0.3h2.6c1,0,1.3,0.1,1.4,0.3
		c0.2,0.2,0.4,0.9,0.4,3.2H76.6z"/>
	<polygon fill="#3878F3" points="92.7,15.3 90.2,15.3 90.2,37.2 103.9,37.2 103.9,35.1 92.7,35.1 	"/>
	<path fill="#3878F3" d="M114.6,20.5h-4.4c-1.7,0-2.7,0.2-3.4,0.9c-1.1,1.1-1.4,2.4-1.4,7.4c0,5,0.4,6.4,1.4,7.4
		c0.7,0.7,1.7,0.9,3.4,0.9h4.4c1.7,0,2.7-0.2,3.4-0.9c1.1-1.1,1.5-2.4,1.5-7.4c0-5-0.4-6.3-1.5-7.4
		C117.3,20.7,116.3,20.5,114.6,20.5z M116.3,34.7c-0.3,0.3-0.8,0.5-2,0.5h-3.9c-1.2,0-1.7-0.1-2-0.5c-0.5-0.5-0.8-1.3-0.8-5.8
		c0-4.5,0.3-5.3,0.8-5.8c0.4-0.4,0.8-0.5,2-0.5h3.9c1.2,0,1.7,0.1,2,0.5c0.5,0.5,0.8,1.3,0.8,5.8C117.1,33.3,116.8,34.2,116.3,34.7z
		"/>
	<path fill="#3878F3" d="M132.3,34.7c-0.4,0.3-0.8,0.4-1.8,0.4h-3.7c-1.2,0-1.7-0.1-2-0.5c-0.5-0.5-0.8-1.3-0.8-5.8
		c0-4.5,0.3-5.3,0.8-5.8c0.4-0.4,0.8-0.5,2-0.5h3.7c1,0,1.4,0.1,1.8,0.4c0.3,0.3,0.5,0.8,0.6,3h2.3c-0.1-2.8-0.4-3.8-1.2-4.6
		c-0.6-0.6-1.3-0.8-3-0.8h-4.4c-1.7,0-2.7,0.2-3.4,0.9c-1.1,1.1-1.4,2.4-1.4,7.4c0,5,0.4,6.4,1.4,7.4c0.7,0.7,1.7,0.9,3.4,0.9h4.4
		c1.6,0,2.4-0.3,3-0.8c0.8-0.8,1.1-1.8,1.2-4.8H133C132.9,33.7,132.7,34.3,132.3,34.7z"/>
	<polygon fill="#3878F3" points="150.8,20.5 148,20.5 141.8,27.8 140.1,27.8 140.1,14.7 137.8,14.7 137.8,37.2 140.1,37.2 
		140.1,29.7 141.8,29.7 148.1,37.2 151,37.2 143.7,28.6 	"/>
	<path fill="#3878F3" d="M17.1,24.8v1.8h1v-1.8c0.4-0.2,0.6-0.6,0.6-1c0-0.6-0.5-1.2-1.2-1.2c-0.6,0-1.2,0.5-1.2,1.2
		C16.5,24.2,16.7,24.6,17.1,24.8z"/>
	<path fill="#3878F3" d="M17.6,13.3c-5,0-8.9,0.4-10.7,2.1C5.1,17.2,4.8,19.9,4.8,26c0,6.2,0.3,8.9,2.1,10.6
		c1.8,1.7,5.7,2.1,10.7,2.1c5,0,8.9-0.4,10.7-2.1c1.8-1.7,2.1-4.4,2.1-10.6c0-6.2-0.3-8.9-2.1-10.6C26.5,13.7,22.6,13.3,17.6,13.3z
		 M17.6,16.4c1.7,0,3.1,1.4,3.1,3.1h-1.3c0-1-0.8-1.8-1.8-1.8c-1,0-1.8,0.8-1.8,1.8h-1.3C14.5,17.8,15.9,16.4,17.6,16.4z M22.1,28.6
		h-1.5v6.6h-2.2v-4.8h-1.5v4.8h-2.2v-6.6h-1.5v-8h8.9V28.6z"/>
</g>
</svg>
