<?xml version="1.0" encoding="utf-8"?>
<!-- Generator: Adobe Illustrator 19.1.0, SVG Export Plug-In . SVG Version: 6.00 Build 0)  -->
<svg version="1.1" id="Layer_1" xmlns="http://www.w3.org/2000/svg" xmlns:xlink="http://www.w3.org/1999/xlink" x="0px" y="0px"
	 viewBox="0 0 58 58" style="enable-background:new 0 0 58 58;" xml:space="preserve">
<style type="text/css">
	.st0{fill:#CC092F;}
</style>
<path class="st0" d="M27.8,26.4v4.3h2.5v-4c0.9-0.3,1.6-1.2,1.6-2.2c0-1.6-1.2-2.5-2.5-2.5c-1.6,0-2.5,1.2-2.5,2.5
	C26.5,25.2,27.2,26.1,27.8,26.4z"/>
<path class="st0" d="M29,1C17.9,1,9.2,1.9,5.1,5.7c-4,4-4.7,9.9-4.7,23.9s0.6,19.8,4.7,23.9c4,4,12.7,4.7,23.9,4.7
	c11.2,0,19.8-0.9,23.9-4.7c4-4,4.7-9.9,4.7-23.9S56.9,9.7,52.9,5.7C48.9,1.6,40.2,1,29,1z M29,7.8c3.7,0,7.1,3.1,7.1,7.1H33
	c0-2.2-1.9-4-4-4s-4,1.9-4,4h-3.1C22.2,10.9,25.3,7.8,29,7.8z M38.9,35.1h-3.4V50h-5V39.1h-3.4V50h-5V35.1h-3.4v-18h19.8v18H38.9z"
	/>
</svg>
