<?xml version="1.0" encoding="utf-8"?>
<!-- Generator: Adobe Illustrator 19.1.0, SVG Export Plug-In . SVG Version: 6.00 Build 0)  -->
<svg version="1.1" id="Layer_1" xmlns="http://www.w3.org/2000/svg" xmlns:xlink="http://www.w3.org/1999/xlink" x="0px" y="0px"
	 viewBox="0 0 80.7 22.3" style="enable-background:new 0 0 80.7 22.3;" xml:space="preserve">
<style type="text/css">
	.st0{fill:#373534;}
</style>
<path class="st0" d="M72.9,6.6c-0.5,0-0.8,0.3-0.8,0.8c0,0.5,0.3,0.8,0.8,0.8c0.5,0,0.8-0.3,0.8-0.8C73.7,6.9,73.4,6.6,72.9,6.6z
	 M72.9,8c-0.4,0-0.7-0.3-0.7-0.7c0-0.4,0.3-0.7,0.7-0.7c0.4,0,0.7,0.3,0.7,0.7C73.6,7.7,73.3,8,72.9,8z"/>
<path class="st0" d="M73.2,7.1c0-0.2-0.2-0.2-0.3-0.2h-0.4v0.8h0.2V7.3h0.2L73,7.7h0.2l-0.2-0.4C73.1,7.3,73.2,7.3,73.2,7.1z
	 M72.9,7.3h-0.2V6.9H73c0.1,0,0.2,0.1,0.2,0.2C73.1,7.3,73.1,7.3,72.9,7.3z"/>
<polygon class="st0" points="9.7,4.7 6.9,4.7 6.9,16.9 15.5,16.9 15.5,14.6 9.7,14.6 "/>
<rect x="16.7" y="7.3" class="st0" width="2.6" height="9.5"/>
<rect x="16.7" y="3.7" class="st0" width="2.6" height="2.3"/>
<path class="st0" d="M22.7,4.6c-0.4,0.4-0.5,1-0.5,2.2v0.5h-1.5v2.1h1.5v7.5h2.7V9.4h1.9V7.3h-2V6.9c0-0.5,0-0.7,0.2-0.8
	C25,6.1,25.1,6,25.4,6h1.3V4h-2.2C23.5,4,23,4.3,22.7,4.6z"/>
<path class="st0" d="M33.4,7.3h-3.2c-1,0-1.5,0.2-1.9,0.5c-0.6,0.6-0.8,1.4-0.8,4.2s0.2,3.5,0.8,4.2c0.4,0.5,0.9,0.6,1.9,0.6h3.5
	c1,0,1.4-0.2,1.7-0.5c0.5-0.5,0.6-1,0.6-2.5h-2.5c0,0.7-0.1,0.8-0.2,0.8c-0.1,0.2-0.2,0.2-0.8,0.2H31c-0.5,0-0.7,0-0.8-0.2
	c-0.1-0.2-0.2-0.4-0.2-1.9h5.7c0.3,0,0.4-0.1,0.4-0.4v-0.5c0-2.8-0.2-3.5-0.8-4.2C35,7.5,34.4,7.3,33.4,7.3z M30,11.2
	c0-1.3,0.1-1.6,0.2-1.8c0.2-0.2,0.4-0.2,0.8-0.2h1.5c0.5,0,0.7,0.1,0.8,0.2c0.2,0.2,0.2,0.5,0.2,1.8H30z"/>
<polygon class="st0" points="39,4.7 37.7,4.7 37.7,16.9 45.2,16.9 45.2,15.7 39,15.7 "/>
<path class="st0" d="M51.2,7.6h-2.5c-0.9,0-1.5,0.2-1.9,0.5c-0.6,0.6-0.8,1.3-0.8,4.2c0,2.8,0.2,3.5,0.8,4.2
	c0.4,0.4,0.9,0.5,1.9,0.5h2.5c0.9,0,1.5-0.2,1.8-0.5c0.6-0.6,0.8-1.3,0.8-4.2c0-2.8-0.2-3.5-0.8-4.2C52.7,7.7,52.1,7.6,51.2,7.6z
	 M52.1,15.5c-0.2,0.2-0.5,0.2-1.1,0.2h-2.2c-0.7,0-0.9-0.1-1.2-0.2c-0.3-0.3-0.4-0.7-0.4-3.2c0-2.5,0.2-2.9,0.4-3.2
	c0.2-0.2,0.5-0.2,1.2-0.2h2.2c0.7,0,0.9,0.1,1.1,0.2c0.3,0.3,0.5,0.7,0.5,3.2C52.6,14.7,52.4,15.2,52.1,15.5z"/>
<path class="st0" d="M61.1,15.5c-0.2,0.2-0.5,0.2-1,0.2h-2c-0.7,0-0.9-0.1-1.2-0.2c-0.3-0.3-0.4-0.7-0.4-3.2c0-2.5,0.2-2.9,0.4-3.2
	c0.2-0.2,0.5-0.2,1.2-0.2h2c0.5,0,0.8,0.1,1,0.2c0.2,0.2,0.3,0.5,0.4,1.6h1.2c0-1.5-0.2-2.2-0.6-2.5c-0.4-0.4-0.8-0.5-1.7-0.5h-2.5
	c-0.9,0-1.5,0.2-1.9,0.5c-0.6,0.6-0.8,1.3-0.8,4.2c0,2.8,0.2,3.5,0.8,4.2c0.4,0.4,0.9,0.5,1.9,0.5h2.5c0.9,0,1.3-0.2,1.6-0.5
	c0.5-0.5,0.6-1,0.7-2.7h-1.2C61.4,15,61.3,15.3,61.1,15.5z"/>
<polygon class="st0" points="71.3,7.6 69.8,7.6 66.4,11.6 65.4,11.6 65.4,4.3 64.1,4.3 64.1,16.9 65.4,16.9 65.4,12.7 66.3,12.7 
	69.8,16.9 71.4,16.9 67.4,12.1 "/>
</svg>
