<?xml version="1.0" encoding="utf-8"?>
<!-- Generator: Adobe Illustrator 19.1.0, SVG Export Plug-In . SVG Version: 6.00 Build 0)  -->
<svg version="1.1" id="Layer_1" xmlns="http://www.w3.org/2000/svg" xmlns:xlink="http://www.w3.org/1999/xlink" x="0px" y="0px"
	 viewBox="-205 291.2 220 31.8" enable-background="new -205 291.2 220 31.8" xml:space="preserve">
<g>
	<path fill="#FFFFFF" d="M-40.8,305.4c-0.6,0-1,0.4-1,1c0,0.6,0.4,1,1,1s1-0.4,1-1C-39.8,305.8-40.2,305.4-40.8,305.4z M-40.8,307.3
		c-0.5,0-0.9-0.4-0.9-0.9s0.4-0.9,0.9-0.9s0.9,0.4,0.9,0.9C-39.9,306.9-40.3,307.3-40.8,307.3z"/>
	<path fill="#FFFFFF" d="M-40.4,306.1c0-0.2-0.2-0.3-0.4-0.3h-0.5v1.1h0.2v-0.5h0.2l0.2,0.5h0.2l-0.3-0.5
		C-40.5,306.4-40.4,306.3-40.4,306.1z M-40.8,306.3H-41v-0.4h0.3c0.1,0,0.2,0.1,0.2,0.2C-40.5,306.3-40.6,306.3-40.8,306.3z"/>
	<polygon fill="#373534" points="-122.9,303 -126.6,303 -126.6,318.8 -115.4,318.8 -115.4,315.9 -122.9,315.9 	"/>
	<rect x="-113.8" y="306.4" fill="#373534" width="3.4" height="12.4"/>
	<rect x="-113.8" y="301.7" fill="#373534" width="3.4" height="3"/>
	<path fill="#373534" d="M-106.1,302.9c-0.5,0.5-0.7,1.3-0.7,2.9v0.6h-1.9v2.7h1.9v9.7h3.5v-9.7h2.5v-2.7h-2.6v-0.5
		c0-0.6,0-0.9,0.2-1c0.1-0.1,0.3-0.2,0.7-0.2h1.7v-2.6h-2.8C-105,302.1-105.6,302.4-106.1,302.9z"/>
	<path fill="#373534" d="M-92.1,306.4h-4.2c-1.3,0-1.9,0.2-2.5,0.7c-0.8,0.8-1.1,1.8-1.1,5.5c0,3.7,0.3,4.6,1.1,5.4
		c0.5,0.6,1.2,0.8,2.5,0.8h4.6c1.3,0,1.8-0.3,2.2-0.7c0.6-0.6,0.8-1.3,0.8-3.2h-3.2c0,0.9-0.1,1-0.2,1.1c-0.1,0.2-0.3,0.2-1,0.2
		h-2.1c-0.6,0-0.9,0-1.1-0.2c-0.1-0.2-0.3-0.5-0.3-2.5h7.4c0.4,0,0.5-0.1,0.5-0.5v-0.6c0-3.6-0.2-4.5-1-5.4
		C-90.1,306.6-90.8,306.4-92.1,306.4z M-96.5,311.4c0-1.7,0.1-2.1,0.3-2.3c0.2-0.2,0.5-0.2,1.1-0.2h1.9c0.7,0,0.9,0.1,1,0.2
		c0.2,0.2,0.3,0.6,0.3,2.3H-96.5z"/>
	<polygon fill="#373534" points="-84.8,303 -86.6,303 -86.6,318.8 -76.8,318.8 -76.8,317.3 -84.8,317.3 	"/>
	<path fill="#373534" d="M-69,306.7h-3.2c-1.2,0-1.9,0.2-2.5,0.7c-0.8,0.8-1,1.7-1,5.4c0,3.6,0.3,4.6,1,5.4c0.5,0.5,1.2,0.7,2.5,0.7
		h3.2c1.2,0,1.9-0.2,2.4-0.7c0.8-0.8,1.1-1.7,1.1-5.4c0-3.6-0.3-4.6-1.1-5.4C-67.1,306.9-67.8,306.7-69,306.7z M-67.8,317
		c-0.2,0.2-0.6,0.3-1.4,0.3H-72c-0.9,0-1.2-0.1-1.5-0.3c-0.4-0.4-0.5-0.9-0.5-4.2c0-3.3,0.2-3.8,0.5-4.2c0.3-0.3,0.6-0.3,1.5-0.3
		h2.8c0.9,0,1.2,0.1,1.4,0.3c0.4,0.4,0.6,0.9,0.6,4.2C-67.2,316-67.4,316.6-67.8,317z"/>
	<path fill="#373534" d="M-56.2,317c-0.3,0.2-0.6,0.3-1.3,0.3h-2.6c-0.9,0-1.2-0.1-1.5-0.3c-0.4-0.4-0.5-0.9-0.5-4.2
		c0-3.3,0.2-3.8,0.5-4.2c0.3-0.3,0.6-0.3,1.5-0.3h2.6c0.7,0,1,0.1,1.3,0.3c0.2,0.2,0.4,0.6,0.5,2.1h1.6c0-2-0.3-2.8-0.8-3.3
		s-1-0.6-2.2-0.6h-3.2c-1.2,0-1.9,0.2-2.5,0.7c-0.8,0.8-1,1.7-1,5.4c0,3.6,0.3,4.6,1,5.4c0.5,0.5,1.2,0.7,2.5,0.7h3.2
		c1.2,0,1.7-0.2,2.1-0.6c0.6-0.6,0.8-1.3,0.9-3.5h-1.6C-55.8,316.3-55.9,316.7-56.2,317z"/>
	<polygon fill="#373534" points="-42.9,306.7 -44.9,306.7 -49.3,312 -50.6,312 -50.6,302.5 -52.3,302.5 -52.3,318.8 -50.6,318.8 
		-50.6,313.4 -49.4,313.4 -44.8,318.8 -42.7,318.8 -48,312.6 	"/>
	<path fill="#CC092F" d="M-139.5,309.8v1.4h0.8v-1.3c0.3-0.1,0.5-0.4,0.5-0.7c0-0.5-0.4-0.8-0.8-0.8c-0.5,0-0.8,0.4-0.8,0.8
		C-139.9,309.4-139.7,309.7-139.5,309.8z"/>
	<path fill="#CC092F" d="M-139.1,301.6c-3.6,0-6.4,0.3-7.7,1.5c-1.3,1.3-1.5,3.2-1.5,7.7s0.2,6.4,1.5,7.7c1.3,1.3,4.1,1.5,7.7,1.5
		c3.6,0,6.4-0.3,7.7-1.5c1.3-1.3,1.5-3.2,1.5-7.7s-0.2-6.4-1.5-7.7C-132.7,301.8-135.5,301.6-139.1,301.6z M-139.1,303.8
		c1.2,0,2.3,1,2.3,2.3h-1c0-0.7-0.6-1.3-1.3-1.3c-0.7,0-1.3,0.6-1.3,1.3h-1C-141.3,304.8-140.3,303.8-139.1,303.8z M-135.9,312.6
		h-1.1v4.8h-1.6v-3.5h-1.1v3.5h-1.6v-4.8h-1.1v-5.8h6.4v5.8H-135.9z"/>
</g>
</svg>
