<?xml version="1.0" encoding="utf-8"?>
<!-- Generator: Adobe Illustrator 19.1.0, SVG Export Plug-In . SVG Version: 6.00 Build 0)  -->
<svg version="1.1" id="Layer_1" xmlns="http://www.w3.org/2000/svg" xmlns:xlink="http://www.w3.org/1999/xlink" x="0px" y="0px"
	 viewBox="0 0 100 40" style="enable-background:new 0 0 100 40;" xml:space="preserve">
<style type="text/css">
	.st0{fill:#FFFFFF;}
	.st1{fill:#373534;}
	.st2{fill:#CC092F;}
</style>
<g>
	<path class="st0" d="M91.4,15.3c-0.5,0-0.8,0.3-0.8,0.8s0.3,0.8,0.8,0.8c0.5,0,0.8-0.3,0.8-0.8S91.8,15.3,91.4,15.3z M91.4,16.8
		c-0.4,0-0.7-0.3-0.7-0.7s0.3-0.7,0.7-0.7c0.4,0,0.7,0.3,0.7,0.7S91.8,16.8,91.4,16.8z"/>
	<path class="st0" d="M91.7,15.9c0-0.2-0.2-0.2-0.3-0.2H91v0.8h0.2v-0.4h0.2l0.2,0.4h0.2l-0.2-0.4C91.6,16.1,91.7,16,91.7,15.9z
		 M91.4,16h-0.2v-0.3h0.2c0.1,0,0.2,0.1,0.2,0.2C91.6,16,91.5,16,91.4,16z"/>
	<polygon class="st1" points="28.2,13.5 25.4,13.5 25.4,25.7 34,25.7 34,23.4 28.2,23.4 	"/>
	<rect x="35.2" y="16.1" class="st1" width="2.6" height="9.5"/>
	<rect x="35.2" y="12.5" class="st1" width="2.6" height="2.3"/>
	<path class="st1" d="M41.1,13.4c-0.4,0.4-0.5,1-0.5,2.2v0.5h-1.5v2.1h1.5v7.5h2.7v-7.5h1.9v-2.1h-2v-0.4c0-0.5,0-0.7,0.2-0.8
		c0.1-0.1,0.2-0.2,0.5-0.2h1.3v-2h-2.2C42,12.8,41.5,13,41.1,13.4z"/>
	<path class="st1" d="M51.9,16.1h-3.2c-1,0-1.5,0.2-1.9,0.5c-0.6,0.6-0.8,1.4-0.8,4.2s0.2,3.5,0.8,4.2c0.4,0.5,0.9,0.6,1.9,0.6h3.5
		c1,0,1.4-0.2,1.7-0.5c0.5-0.5,0.6-1,0.6-2.5h-2.5c0,0.7-0.1,0.8-0.2,0.8c-0.1,0.2-0.2,0.2-0.8,0.2h-1.6c-0.5,0-0.7,0-0.8-0.2
		c-0.1-0.2-0.2-0.4-0.2-1.9h5.7c0.3,0,0.4-0.1,0.4-0.4v-0.5c0-2.8-0.2-3.5-0.8-4.2C53.4,16.3,52.9,16.1,51.9,16.1z M48.5,20
		c0-1.3,0.1-1.6,0.2-1.8c0.2-0.2,0.4-0.2,0.8-0.2h1.5c0.5,0,0.7,0.1,0.8,0.2c0.2,0.2,0.2,0.5,0.2,1.8H48.5z"/>
	<polygon class="st1" points="57.5,13.5 56.1,13.5 56.1,25.7 63.7,25.7 63.7,24.5 57.5,24.5 	"/>
	<path class="st1" d="M69.7,16.3h-2.5c-0.9,0-1.5,0.2-1.9,0.5c-0.6,0.6-0.8,1.3-0.8,4.2c0,2.8,0.2,3.5,0.8,4.2
		c0.4,0.4,0.9,0.5,1.9,0.5h2.5c0.9,0,1.5-0.2,1.8-0.5c0.6-0.6,0.8-1.3,0.8-4.2c0-2.8-0.2-3.5-0.8-4.2C71.1,16.5,70.6,16.3,69.7,16.3
		z M70.6,24.3c-0.2,0.2-0.5,0.2-1.1,0.2h-2.2c-0.7,0-0.9-0.1-1.2-0.2c-0.3-0.3-0.4-0.7-0.4-3.2c0-2.5,0.2-2.9,0.4-3.2
		c0.2-0.2,0.5-0.2,1.2-0.2h2.2c0.7,0,0.9,0.1,1.1,0.2c0.3,0.3,0.5,0.7,0.5,3.2C71.1,23.5,70.9,24,70.6,24.3z"/>
	<path class="st1" d="M79.5,24.3c-0.2,0.2-0.5,0.2-1,0.2h-2c-0.7,0-0.9-0.1-1.2-0.2C75.1,24,75,23.6,75,21c0-2.5,0.2-2.9,0.4-3.2
		c0.2-0.2,0.5-0.2,1.2-0.2h2c0.5,0,0.8,0.1,1,0.2c0.2,0.2,0.3,0.5,0.4,1.6h1.2c0-1.5-0.2-2.2-0.6-2.5c-0.4-0.4-0.8-0.5-1.7-0.5h-2.5
		c-0.9,0-1.5,0.2-1.9,0.5c-0.6,0.6-0.8,1.3-0.8,4.2c0,2.8,0.2,3.5,0.8,4.2c0.4,0.4,0.9,0.5,1.9,0.5h2.5c0.9,0,1.3-0.2,1.6-0.5
		c0.5-0.5,0.6-1,0.7-2.7h-1.2C79.8,23.7,79.8,24,79.5,24.3z"/>
	<polygon class="st1" points="89.8,16.3 88.2,16.3 84.8,20.4 83.8,20.4 83.8,13.1 82.5,13.1 82.5,25.7 83.8,25.7 83.8,21.5 
		84.8,21.5 88.3,25.7 89.9,25.7 85.8,20.9 	"/>
	<path class="st2" d="M15.4,18.7v1.1H16v-1c0.2-0.1,0.4-0.3,0.4-0.5c0-0.4-0.3-0.6-0.6-0.6c-0.4,0-0.6,0.3-0.6,0.6
		C15.1,18.4,15.3,18.7,15.4,18.7z"/>
	<path class="st2" d="M15.7,12.4c-2.8,0-4.9,0.2-5.9,1.2c-1,1-1.2,2.5-1.2,5.9s0.2,4.9,1.2,5.9c1,1,3.2,1.2,5.9,1.2
		c2.8,0,4.9-0.2,5.9-1.2c1-1,1.2-2.5,1.2-5.9s-0.2-4.9-1.2-5.9C20.7,12.6,18.5,12.4,15.7,12.4z M15.7,14.1c0.9,0,1.8,0.8,1.8,1.8
		h-0.8c0-0.5-0.5-1-1-1s-1,0.5-1,1H14C14,14.9,14.8,14.1,15.7,14.1z M18.2,20.9h-0.8v3.7h-1.2v-2.7h-0.8v2.7H14v-3.7h-0.8v-4.5h4.9
		L18.2,20.9L18.2,20.9z"/>
</g>
</svg>
